<svg xmlns="http://www.w3.org/2000/svg" width="756" height="756" viewBox="0 0 756 756" fill="none">
<g clip-path="url(#clip0_392_73)">
<path d="M590.344 61.7195H540.967C527.611 61.7195 515.065 68.5998 507.375 79.9321L106.697 687.425C103.459 692.686 107.102 699.567 113.173 699.567H162.549C175.905 699.567 188.451 692.686 196.141 681.354L596.819 73.8612C600.462 69.0045 596.415 61.7195 590.344 61.7195Z" fill="#FFC000"/>
<path fill-rule="evenodd" clip-rule="evenodd" d="M174.894 36L191.087 91.1066C205.431 141.076 244.758 180.305 294.728 194.782L349.787 210.66L294.728 226.538C244.758 241.015 205.431 280.244 191.087 330.214L174.894 385.787L158.7 330.681C144.357 280.711 105.029 241.482 55.0591 227.005L0 211.127L55.0591 195.249C105.029 180.772 144.357 141.543 158.7 91.5736L174.894 36Z" fill="#FFC000"/>
<path d="M579.162 475.149C583.628 492.209 630.825 537.178 646.514 542.914C630.825 546.853 584.383 593.294 579.162 610.679C574.695 593.619 530.202 546.784 511.809 542.914C530.202 535.243 574.226 492.209 579.162 475.149ZM578.692 365.212L562.26 421.603C547.706 472.307 507.8 512.112 457.095 526.802L401.227 542.914L457.095 559.026C507.8 573.716 547.706 613.521 562.26 664.226L578.692 720.143L595.124 663.752C609.678 613.047 649.584 573.242 700.289 558.552L756.158 542.44L700.289 526.329C649.584 511.639 609.678 471.833 595.124 421.129L578.692 365.212Z" fill="#FFC000"/>
</g>
<defs>
<clipPath id="clip0_392_73">
<rect width="756" height="756" fill="white"/>
</clipPath>
</defs>
<script xmlns=""/></svg>